<?xml version="1.0" encoding="iso-8859-1"?>
<!-- Generator: Adobe Illustrator 19.0.0, SVG Export Plug-In . SVG Version: 6.00 Build 0)  -->
<svg version="1.1" id="Layer_1" xmlns="http://www.w3.org/2000/svg" xmlns:xlink="http://www.w3.org/1999/xlink" x="0px" y="0px"
	 viewBox="0 0 512.001 512.001" style="enable-background:new 0 0 512.001 512.001;" xml:space="preserve">
<g>
	<g>
		<path d="M203.912,261.638l-39.28-39.281L14.685,372.302c-19.573,19.562-19.587,51.278,0,70.854
			c19.562,19.572,51.278,19.587,70.854,0L231.385,297.31C223.698,284.459,214.584,272.311,203.912,261.638z"/>
	</g>
</g>
<g>
	<g>
		<path d="M389.009,68.839c-9.459-9.459-22.051-14.679-35.435-14.679c-7.579,0-14.824,1.842-21.472,5.015l37.139,37.14
			c9.407,9.411,20.065,17.633,31.357,24.776c1.911-5.348,3.077-10.982,3.077-16.829C403.677,90.889,398.468,78.298,389.009,68.839z"
			/>
	</g>
</g>
<g>
	<g>
		<path d="M494.715,182.049c-51.919,1.707-108.98-21.996-149.09-62.117l-51.092-51.092c-6.523-6.523-17.093-6.523-23.616,0
			l-94.476,94.476c-6.523,6.523-6.523,17.093,0,23.616l51.092,51.092c40.121,40.132,63.922,97.259,62.117,149.078
			c-0.415,11.604,10.918,20.113,21.975,16.428c93.692-31.238,168.281-105.815,199.507-199.507
			C514.903,192.689,505.829,181.394,494.715,182.049z M407.015,258.202c-12.047,15.233-25.877,29.064-41.122,41.132
			c-7.213,5.704-17.7,4.521-23.464-2.74c-5.719-7.23-4.491-17.733,2.74-23.464c13.21-10.449,25.204-22.442,35.642-35.652
			c5.729-7.23,16.233-8.46,23.464-2.74S412.734,250.961,407.015,258.202z"/>
	</g>
</g>
<g>
</g>
<g>
</g>
<g>
</g>
<g>
</g>
<g>
</g>
<g>
</g>
<g>
</g>
<g>
</g>
<g>
</g>
<g>
</g>
<g>
</g>
<g>
</g>
<g>
</g>
<g>
</g>
<g>
</g>
</svg>
