<?xml version="1.0" encoding="utf-8"?>
<!-- Uploaded to SVGRepo https://www.svgrepo.com -->
<svg version="1.1" id="Layer_1" xmlns="http://www.w3.org/2000/svg" xmlns:xlink="http://www.w3.org/1999/xlink" x="0px" y="0px"
	 width="256px" height="256px" viewBox="0 0 256 256" enable-background="new 0 0 256 256" xml:space="preserve">
<path d="M82.649,69.234c20.029,0,36.219,16.19,36.219,36.219s-16.19,36.386-36.219,36.386S46.43,125.648,46.43,105.62
	S62.62,69.234,82.649,69.234z M185.464,221.954h-45.399l21.197-36.553c4.34-7.678,1.669-17.358-5.842-21.698
	s-17.191-1.669-21.531,5.842l-21.197,36.553L81.147,152.02c-3.004-5.675-9.013-8.512-16.524-8.512c-1.001,0-3.171,0.334-4.34,0.668
	c-1.001,0.167-2.504,0.668-3.672,1.001C26.235,155.191,2.2,203.761,2.2,254c0.835,0,72.938,0,91.298,0
	c-0.668-1.001-1.335-1.836-2.003-2.837l-36.553-63.091c-1.168-2.17-0.334-5.007,1.669-6.176c2.17-1.168,5.007-0.334,6.176,1.669
	l36.219,62.59c2.671,4.673,7.678,7.845,13.519,7.845h72.938c8.846,0,15.856-7.177,15.856-15.856
	C201.487,228.964,194.143,221.954,185.464,221.954z M126.721,64.492c-4.453,0-8.063,3.61-8.063,8.063
	c0,4.453,3.61,8.063,8.063,8.063c4.453,0,8.063-3.61,8.063-8.063C134.783,68.101,131.173,64.492,126.721,64.492z M253.886,53.384
	c-0.761-7.602-5.194-13.944-11.362-17.459c1.532-3.639,2.203-7.701,1.783-11.906c-1.345-13.437-13.328-23.24-26.765-21.895
	c-7.462,0.747-13.799,4.777-17.732,10.512c-4.234-3.273-9.676-4.999-15.422-4.424c-11.923,1.193-20.62,11.826-19.427,23.748
	c0.027,0.274,0.065,0.545,0.103,0.816c-1.924-0.342-3.924-0.433-5.964-0.229c-11.923,1.193-20.62,11.826-19.427,23.748
	c1.193,11.923,11.826,20.62,23.748,19.427c5.025-0.503,9.473-2.687,12.853-5.934c4.08,7.337,12.245,11.942,21.129,11.053
	c7.158-0.716,13.15-4.838,16.541-10.595c4.661,5.534,11.882,8.75,19.625,7.975C246.037,76.972,255.133,65.852,253.886,53.384z"/>
</svg>
