<?xml version="1.0" encoding="iso-8859-1"?>
<!-- Generator: Adobe Illustrator 19.0.0, SVG Export Plug-In . SVG Version: 6.00 Build 0)  -->
<svg version="1.1" id="Layer_1" xmlns="http://www.w3.org/2000/svg" xmlns:xlink="http://www.w3.org/1999/xlink" x="0px" y="0px"
	 viewBox="0 0 512 512" style="enable-background:new 0 0 512 512;" xml:space="preserve">
<g>
	<g>
		<circle cx="452.765" cy="114.608" r="36.736"/>
	</g>
</g>
<g>
	<g>
		<path d="M499.501,256.642l-55.759-14.332l-20.806-59.782l30.144,45.01l10.906-28.564c4.888-12.804-1.527-27.147-14.331-32.035
			l-41.181-15.83c-5.5-2.114-11.449-2.787-17.282-1.954l-40.221,5.74c-1.26,2.592-3.02,4.991-5.293,7.031l-43.368,38.929
			c3.422,8.688,1.317,18.976-6.029,25.569l-5.048,4.531l-3.2,10.524c-2.674,8.794,2.286,18.091,11.081,20.765
			c8.788,2.674,18.09-2.283,20.765-11.081l18.506-60.854l30.048-4.278l-37.058,98.596c-2.014,4.402-2.405,9.552-0.675,14.48
			l16.055,45.73l-73.805,23.965c-10.184,3.307-15.758,14.243-12.451,24.427s14.241,15.758,24.426,12.451l92.684-30.096
			c10.357-3.362,15.906-14.603,12.305-24.86l-17.734-50.516l0.596,0.228l40.691,63.909l-29.251,82.383
			c-3.582,10.09,1.693,21.173,11.783,24.756c10.085,3.582,21.172-1.691,24.756-11.782l32.417-91.3
			c1.997-5.628,1.29-11.862-1.916-16.9l-28.448-44.679l6.616-17.326l-6.587-1.693c-14.345-3.687-22.635-16.296-23.49-24.46
			l-7.085-67.678l22.976,66.014c1.881,5.401,6.357,9.308,11.576,10.648c7.307,1.877,57.135,14.685,64.401,16.553
			c8.522,2.189,17.305-2.627,19.99-11.07C514.134,268.609,508.693,259.004,499.501,256.642z"/>
	</g>
</g>
<g>
	<g>
		<path d="M207.897,450.408l-13.363-91.3c-0.669-4.571-2.59-7.229-4.017-9.47l-13.26,20.342c-4.16,6.382-11.09,10.605-18.646,11.42
			l10.921,74.624c1.549,10.587,11.382,17.923,21.99,16.375C202.116,470.848,209.446,461.002,207.897,450.408z"/>
	</g>
</g>
<g>
	<g>
		<path d="M243.388,89.503l-12.602-11.66h-74.138l0.288,17.131c-2.697,16.813,6.639,33.782,23.177,40.097
			c18.954,7.237,40.186-2.261,47.423-21.214c2.383-6.242,2.94-12.728,1.951-18.882h11.759
			C244.108,94.974,245.492,91.45,243.388,89.503z"/>
	</g>
</g>
<g>
	<g>
		<path d="M336.076,139.639c-2.856-3.182-7.752-3.447-10.934-0.59l-8.652,7.766l-4.526-5.042c-2.856-3.18-7.748-3.448-10.934-0.59
			c-3.182,2.857-3.446,7.752-0.59,10.934l4.525,5.042l-74.343,66.731l13.306,3.42c6.808,1.75,12.555,5.542,16.774,10.546
			l25.386-22.785c3.182-2.857,3.447-7.752,0.59-10.934c-2.23-2.484-5.697-3.179-8.621-2.015l57.429-51.549
			C338.668,147.717,338.932,142.822,336.076,139.639z"/>
	</g>
</g>
<g>
	<g>
		<path d="M189.718,280.739l-56.265,50.316c-4.21,3.778-4.559,10.255-0.78,14.464l15.598,17.376
			c4.509,5.024,12.537,4.376,16.203-1.248l48.798-74.855L189.718,280.739z"/>
	</g>
</g>
<g>
	<g>
		<path d="M239.952,242.785c-29.482-7.577-18.463-4.745-55.758-14.332l-20.808-59.782l30.144,45.011l10.906-28.564
			c4.888-12.804-1.528-27.147-14.332-32.035l-42.987-16.412c-4.517-1.724-9.398-2.27-14.184-1.586l-69.283,9.907
			c-10.506,1.496-16.94,12.321-13.264,22.253c24.17,65.367,29.849,79.954,29.849,79.954l-7.078,18.539
			c-1.248,3.268-2.053,6.665-2.416,10.145c-0.896,8.582-2.989,29.296-7.218,74.145L5.477,409.813
			c-7.458,7.682-7.277,19.955,0.405,27.413c7.685,7.461,19.96,7.274,27.414-0.405l62.824-64.708
			c3.091-3.184,4.997-7.334,5.399-11.754l6.213-68.549l16.948,26.619c5.602-5.01,41.6-37.2,47.257-42.26
			c-2.809-0.721-0.45-0.116-8.651-2.223c-14.929-3.837-22.697-16.881-23.489-24.46l-7.086-67.678l22.976,66.014
			c1.871,5.372,6.323,9.298,11.576,10.649c0.001,0,64.405,16.554,64.405,16.554c8.959,2.3,17.985-3.133,20.259-11.978
			C254.218,254.146,248.855,245.073,239.952,242.785z M98.126,200.346l-9.363-25.306l20.12-2.864L98.126,200.346z"/>
	</g>
</g>
<g>
	<g>
		<path d="M224.28,39.493l-62.334,10.968c-3.064,0.539-5.3,3.202-5.3,6.315v10.692h75.155V45.806
			C231.802,41.82,228.2,38.803,224.28,39.493z"/>
	</g>
</g>
<g>
</g>
<g>
</g>
<g>
</g>
<g>
</g>
<g>
</g>
<g>
</g>
<g>
</g>
<g>
</g>
<g>
</g>
<g>
</g>
<g>
</g>
<g>
</g>
<g>
</g>
<g>
</g>
<g>
</g>
</svg>
